<?xml version="1.0" standalone="no"?><!DOCTYPE svg PUBLIC "-//W3C//DTD SVG 1.1//EN" "http://www.w3.org/Graphics/SVG/1.1/DTD/svg11.dtd"><svg t="1756696063248" class="icon" viewBox="0 0 1024 1024" version="1.1" xmlns="http://www.w3.org/2000/svg" p-id="4443" xmlns:xlink="http://www.w3.org/1999/xlink" width="200" height="200"><path d="M469.333333 64v85.333333h85.333334V64h-85.333334z m0 810.666667v85.333333h85.333334v-85.333333h-85.333334zM164.266667 226.133333l59.733333 59.733334 59.733333-59.733334-59.733333-59.733333-59.733333 59.733333z m573.866666 571.733334l59.733334 59.733333 59.733333-59.733333-59.733333-59.733334-59.733334 59.733334zM64 554.666667h85.333333v-85.333334H64v85.333334z m810.666667 0h85.333333v-85.333334h-85.333333v85.333334zM226.133333 859.733333l59.733334-59.733333-59.733334-59.733333-59.733333 59.733333 59.733333 59.733333z m571.733334-573.866666l59.733333-59.733334-59.733333-59.733333-59.733334 59.733333 59.733334 59.733334zM512 192C334.933333 192 192 334.933333 192 512s142.933333 320 320 320 320-142.933333 320-320S689.066667 192 512 192z m-10.666667 362.666667c0 53.333333-42.666667 96-96 96s-96-42.666667-96-96v-149.333334h64v149.333334c0 17.066667 14.933333 32 32 32s32-14.933333 32-32v-149.333334h64v149.333334z m160 85.333333h-64l-64-234.666667h64l32 117.333334L661.333333 405.333333h64l-64 234.666667z" fill="#f4ea2a" p-id="4444"></path></svg>